# xmcd
#
# Track frame offsets: 
#        150
#        16224
#        28696
#        42854
#        57813
#        73155
#        88114
#        102704
#        117203
#        131389
#        146536
#        159712
#        172811
#        185959
#        200619
#        214317
#        229025
#        243197
#        257773
#        272495
#        287517
#        302365
#        316885
#        331851
#
# Disc length: 4630 seconds
#
# Revision: 0
# Processed by: cddbd v1.5.2PL0 Copyright (c) Steve Scherf et al.
# Submitted via: ExactAudioCopy v0.95b3
#
DISCID=56121418
DTITLE=Blind Lemon Jefferson  - Texas Blues - Box - CD5
DYEAR=1900
DGENRE=
TTITLE0=Long Distance Moan
TTITLE1=That Crawlin' Baby Blues
TTITLE2=Fence Breakin' Yellin' Blues
TTITLE3=Cat Man Blues
TTITLE4=Cheaters Spell
TTITLE5=Bootin' Me 'bout
TTITLE6=Oak Cliff T-Bone - Trinity River Blues
TTITLE7=Oak Cliff T-Bone - Wichita Falls Blues
TTITLE8=Willie Reed - Dreaming Blues
TTITLE9=Willie Reed - Texas Blues
TTITLE10=Willie Reed - Leavin' Home
TTITLE11=Willie Reed - Goin' Back To My Baby
TTITLE12=Willie Reed - Some Low Down Groundhog Blues
TTITLE13=Willie Reed - All Worn Out And Dry Blues
TTITLE14=Little Hat Jones - New Two Sixteen Blues
TTITLE15=Little Hat Jones - Two String Blues
TTITLE16=Little Hat Jones - Rolled From Side To Side Blues
TTITLE17=Little Hat Jones - Hurry Blues
TTITLE18=Little Hat Jones - Little Hat Blues
TTITLE19=Little Hat Jones - Corpus Blues
TTITLE20=Little Hat Jones - Kentucky Blues
TTITLE21=Little Hat Jones - Bye Bye Baby Blues
TTITLE22=Little Hat Jones - Cross The Water Blues
TTITLE23=Little Hat Jones - Cherry Street Blues
EXTD=
EXTT0=
EXTT1=
EXTT2=
EXTT3=
EXTT4=
EXTT5=
EXTT6=
EXTT7=
EXTT8=
EXTT9=
EXTT10=
EXTT11=
EXTT12=
EXTT13=
EXTT14=
EXTT15=
EXTT16=
EXTT17=
EXTT18=
EXTT19=
EXTT20=
EXTT21=
EXTT22=
EXTT23=
PLAYORDER=
